<?xml version="1.0" encoding="UTF-8" standalone="no"?>
<!-- Created with Inkscape (http://www.inkscape.org/) -->

<svg
   width="168.40582mm"
   height="118.53209mm"
   viewBox="0 0 168.40582 118.53209"
   version="1.1"
   id="svg4286"
   inkscape:version="1.2.2 (732a01da63, 2022-12-09)"
   sodipodi:docname="LJP.svg"
   inkscape:export-filename="LJP.png"
   inkscape:export-xdpi="300"
   inkscape:export-ydpi="300"
   xmlns:inkscape="http://www.inkscape.org/namespaces/inkscape"
   xmlns:sodipodi="http://sodipodi.sourceforge.net/DTD/sodipodi-0.dtd"
   xmlns="http://www.w3.org/2000/svg"
   xmlns:svg="http://www.w3.org/2000/svg">
  <sodipodi:namedview
     id="namedview4288"
     pagecolor="#ffffff"
     bordercolor="#000000"
     borderopacity="0.25"
     inkscape:showpageshadow="2"
     inkscape:pageopacity="0.0"
     inkscape:pagecheckerboard="0"
     inkscape:deskcolor="#d1d1d1"
     inkscape:document-units="mm"
     showgrid="false"
     inkscape:zoom="1.3826038"
     inkscape:cx="170.33079"
     inkscape:cy="298.71175"
     inkscape:window-width="1920"
     inkscape:window-height="974"
     inkscape:window-x="-11"
     inkscape:window-y="-11"
     inkscape:window-maximized="1"
     inkscape:current-layer="layer1" />
  <defs
     id="defs4283">
    <inkscape:path-effect
       effect="powerstroke"
       id="path-effect45993-6-5"
       is_visible="true"
       lpeversion="1"
       offset_points="0,4.99214"
       not_jump="false"
       sort_points="true"
       interpolator_type="CubicBezierJohan"
       interpolator_beta="0.2"
       start_linecap_type="zerowidth"
       linejoin_type="extrp_arc"
       miter_limit="4"
       scale_width="1"
       end_linecap_type="zerowidth" />
    <inkscape:path-effect
       effect="powerstroke"
       id="path-effect45993-6-6"
       is_visible="true"
       lpeversion="1"
       offset_points="0,4.99214"
       not_jump="false"
       sort_points="true"
       interpolator_type="CubicBezierJohan"
       interpolator_beta="0.2"
       start_linecap_type="zerowidth"
       linejoin_type="extrp_arc"
       miter_limit="4"
       scale_width="1"
       end_linecap_type="zerowidth" />
  </defs>
  <g
     inkscape:label="Layer 1"
     inkscape:groupmode="layer"
     id="layer1"
     transform="translate(-7.2608271,-42.923387)">
    <path
       style="fill:#ffff00;fill-opacity:0.4;stroke:none;stroke-width:0.374176;stroke-linecap:butt;stroke-linejoin:round;stroke-miterlimit:4;stroke-dasharray:none;stroke-opacity:0.22"
       d="m 72.365327,133.93115 c -0.951812,-0.95951 -1.730587,-1.80589 -1.730587,-1.88079 0,-0.28284 28.683506,-33.344603 28.910015,-33.322865 0.130519,0.01251 2.342065,1.864705 4.914585,4.115955 l 4.67725,4.09317 -1.10331,1.12757 c -1.176,1.20182 -1.29175,1.46118 -0.78,1.74757 0.28314,0.15846 0.25408,0.21091 -0.23386,0.42215 -0.30647,0.13267 -0.89898,0.53952 -1.31673,0.90413 -1.36022,1.18718 -1.76643,1.50479 -1.92463,1.50479 -0.0856,0 -0.25148,0.21031 -0.36859,0.46738 -0.11713,0.25705 -0.66725,0.75798 -1.22251,1.11318 -0.55525,0.35518 -1.05619,0.76732 -1.11318,0.91586 -0.057,0.14854 -0.6359,0.52414 -1.286455,0.83471 -0.650557,0.31056 -1.645867,0.99938 -2.21181,1.53072 -0.565944,0.53133 -1.70614,1.41422 -2.533783,1.96196 -0.827643,0.54774 -1.623007,1.13832 -1.767496,1.31244 -0.144515,0.1741 -0.814387,0.70766 -1.488625,1.18565 -0.674264,0.478 -1.37578,1.05516 -1.558925,1.28257 -0.183144,0.22741 -0.856668,0.72602 -1.496721,1.10802 -0.640027,0.38201 -1.879309,1.38078 -2.753942,2.21954 -0.874633,0.83875 -1.862005,1.71384 -2.194163,1.94463 -0.332158,0.2308 -0.731864,0.68887 -0.88826,1.01788 -0.903313,1.90058 -5.946748,5.59364 -8.236452,6.03113 -0.512207,0.0979 -0.712523,-0.0453 -2.291821,-1.63735 z"
       id="path277883" />
    <path
       style="fill:#ffff00;fill-opacity:0.4;stroke:none;stroke-width:0.374176;stroke-linecap:butt;stroke-linejoin:round;stroke-miterlimit:4;stroke-dasharray:none;stroke-opacity:0.22"
       d="m 66.559945,128.11883 c -1.874811,-1.87687 -3.408732,-3.51041 -3.408732,-3.63011 0,-0.3806 1.044284,-1.27986 2.461842,-2.11992 0.755411,-0.44767 1.765749,-1.21954 2.245227,-1.71526 0.479452,-0.49575 1.038728,-0.90133 1.242828,-0.90133 0.204099,0 0.413226,-0.10986 0.46474,-0.24413 0.05154,-0.13428 0.448178,-0.36113 0.88146,-0.50411 0.433281,-0.14301 0.913632,-0.45212 1.067487,-0.68692 0.250243,-0.38192 1.365012,-1.10045 1.365012,-0.87984 0,0.0487 -0.129725,0.33935 -0.288263,0.64598 -0.296598,0.57354 -0.235241,0.92064 0.162745,0.92064 0.124619,0 0.709136,-0.94713 1.298892,-2.10473 0.589783,-1.15761 1.272884,-2.48362 1.518021,-2.94664 0.245136,-0.46305 3.327426,-6.65102 6.84948,-13.75103 3.522081,-7.100014 6.930284,-13.751017 7.57383,-14.780003 0.64352,-1.028988 1.507543,-2.544408 1.920002,-3.367598 0.412486,-0.82319 1.053227,-2.043943 1.423882,-2.712783 0.370655,-0.668843 0.675851,-1.336829 0.67818,-1.484416 0.0045,-0.28538 0.599043,-1.666462 1.052248,-2.444448 0.14986,-0.257247 0.557609,-1.0198 0.906092,-1.694567 0.348482,-0.674764 0.761576,-1.333053 0.917972,-1.462865 0.156421,-0.12981 0.342873,-0.503817 0.414337,-0.83113 0.07149,-0.327308 0.282178,-0.7893 0.468233,-1.026645 0.186055,-0.237344 0.482865,-0.866857 0.659607,-1.398915 0.176715,-0.532061 0.434472,-1.080545 0.57277,-1.218856 0.138324,-0.138308 0.251486,-0.525695 0.251486,-0.860859 0,-0.440732 0.308001,-1.050824 1.112867,-2.204403 1.33956,-1.919903 3.41339,-5.434575 3.71041,-6.28833 0.11792,-0.338971 0.37489,-0.844111 0.57099,-1.122532 0.5923,-0.840806 1.15348,-2.05541 1.15967,-2.50997 0.003,-0.235622 0.21326,-0.765162 0.46676,-1.176758 0.26807,-0.435234 0.46132,-1.034161 0.46188,-1.43143 0,-0.479846 0.47567,-1.640271 1.59644,-3.900303 l 1.59549,-3.217224 0.6028,0.454808 c 0.33155,0.250145 4.69281,3.520699 9.69169,7.267898 4.99885,3.747198 9.12416,6.862921 9.16734,6.923828 0.0431,0.0609 -3.27647,3.83613 -7.37696,8.389387 l -7.45545,8.278651 0.40047,1.596654 c 0.22024,0.87816 0.36391,1.633189 0.31925,1.677837 -0.0446,0.04465 -1.30369,-0.01749 -2.79789,-0.138054 -1.49419,-0.120581 -2.80715,-0.188767 -2.91767,-0.151527 -0.11054,0.03724 0.41272,1.035897 1.16282,2.219232 0.75009,1.183336 1.43491,2.268575 1.5218,2.411646 0.15976,0.262948 -1.16626,0.232187 -4.41952,-0.102519 l -1.06185,-0.109251 0.45008,1.753166 c 0.24752,0.964239 0.44998,1.879446 0.4499,2.033794 -1.3e-4,0.213696 -6.33688,7.712524 -8.466747,10.019434 -0.184838,0.200195 -6.782726,7.856891 -14.661965,17.014871 -7.879265,9.158 -14.381559,16.71235 -14.449583,16.7875 -0.068,0.0751 -1.657589,-1.39904 -3.5324,-3.27592 z"
       id="path277805" />
    <path
       style="fill:#ffff00;fill-opacity:0.4;stroke:none;stroke-width:0.264583px;stroke-linecap:butt;stroke-linejoin:miter;stroke-opacity:0.4"
       d="m 109.68134,44.75961 c 1.55723,-0.19631 2.78916,-1.17166 4.35798,-1.43313 2.48631,-0.41439 5.14985,-0.18709 7.67064,-0.18709 1.31961,0 2.80813,-0.18683 4.11594,0 0.83648,0.11949 1.68433,0.63631 2.43215,0.93544 3.12926,1.25171 6.58704,2.0535 9.54154,3.74177 2.10121,1.2007 3.82781,2.89452 5.79975,4.30304 8.33019,5.76706 -1.04096,-0.82748 3.55467,2.61924 0.71954,0.53965 1.56218,0.91138 2.24507,1.49671 0.10586,0.0908 0.0885,0.27558 0.18709,0.37418 0.45564,0.45563 1.27233,0.62878 1.68381,1.12253 0.35708,0.42851 0.43894,1.0326 0.74834,1.49671 0.22149,0.33225 0.53907,0.59536 0.74835,0.93545 0.94954,1.543 1.39049,3.38271 2.05798,5.05139 0.90813,2.27034 1.4967,3.59842 1.4967,5.98684 0,1.89552 -0.55063,3.67232 -2.05796,4.67721 -0.30763,0.20509 -3.41029,1.00167 -2.24872,0.62971"
       id="path277733" />
    <path
       style="fill:#00f400;fill-opacity:0.2249;stroke:#00f400;stroke-width:0.264583px;stroke-linecap:butt;stroke-linejoin:miter;stroke-opacity:0.22"
       d="m 107.03551,47.40544 c 0.16991,-0.70272 0.15644,-0.1688 -0.85392,-0.33719 -0.82071,-0.13678 -1.63692,-0.31658 -2.43216,-0.56127 -0.76657,-0.23587 -2.68901,-1.14765 -3.74176,-1.30962 -0.36983,-0.0569 -0.74909,0.0233 -1.12252,0 -0.94189,-0.0589 -1.86394,-0.32457 -2.80633,-0.37417 -1.55694,-0.082 -3.11817,0 -4.67723,0 -3.11814,0 -6.23628,0 -9.35444,0 -2.13054,0 -4.46151,-0.2522 -6.5481,0.18708 -0.57893,0.12189 -1.10789,0.42576 -1.68381,0.56127 -1.40803,0.33131 -2.88208,0.29061 -4.30302,0.56127 -4.36351,0.83114 -8.74395,1.89386 -13.09621,2.61924 -1.34049,0.22341 -2.88269,1.20946 -4.11594,1.6838 -0.92033,0.35396 -1.8709,0.62362 -2.80633,0.93544 -0.99782,0.43654 -1.98221,0.90513 -2.99342,1.30962 -2.03321,0.81328 -4.03791,1.76273 -6.17394,2.24506 -1.04127,0.23513 -2.14035,0.13415 -3.18051,0.37418 -1.40287,0.32374 -2.71737,0.96775 -4.11593,1.30962 -1.41426,0.3457 -2.90219,0.35189 -4.30306,0.74836 -1.91738,0.54265 -3.74353,1.36721 -5.61266,2.05797 -3.186,1.17744 -5.74492,2.5564 -8.41898,4.67722 -1.07606,0.85342 -2.25378,1.60563 -3.18051,2.61924 -1.08598,1.18778 -1.89261,2.60398 -2.80633,3.92886 -0.8487,1.2306 -1.37662,2.38771 -1.30963,3.92886 0.12396,2.8507 0.81245,3.44768 1.87089,5.79975 1.6061,3.56914 0.30359,0.94606 1.8709,4.86431 0.78198,1.95495 1.70876,3.57472 2.24507,5.61266 0.2463,0.93599 1.42475,6.9839 1.68378,8.2319 0.48345,2.32938 1.61483,7.37007 2.05798,10.10279 0.16097,0.9926 0.18886,2.00505 0.37418,2.99341 0.43762,2.33404 1.23719,4.58996 1.6838,6.92229 0.30853,1.61123 0.30221,3.28562 0.74835,4.86431 0.37195,1.31617 1.10871,2.50082 1.68381,3.74177 2.67949,5.78209 0.94081,2.14357 4.11594,7.67064 0.95948,1.67021 1.80305,3.40712 2.80633,5.05139 5.53273,9.06754 1.90672,3.15355 6.17392,8.60608 0.41574,0.5312 0.67834,1.17613 1.12254,1.68378 1.54895,1.77025 4.52914,3.41667 6.5481,4.30305 4.04762,1.777 8.6814,2.80557 13.09621,2.99342 3.70456,0.15764 7.73314,-0.3873 11.41241,0 0.51144,0.0538 0.99419,0.26493 1.49669,0.37417 1.93098,0.41979 9.69248,1.86595 9.72862,1.8709 4.19018,0.57139 6.32048,0.29861 10.47698,0.37417 4.63137,0.0842 9.20935,0.47996 13.84456,0.56126 4.05018,0.0711 8.10977,0 12.16075,0 4.36541,0 8.7308,0 13.09621,0 2.37646,0 5.7767,0.29266 8.04482,0 1.2615,-0.16277 2.4883,-0.53223 3.74176,-0.74834 0.55653,-0.096 1.13252,-0.0646 1.68381,-0.18709 5.71984,-1.27109 12.1889,-7.00654 16.65089,-10.47697 4.45736,-3.46684 8.99776,-6.92812 12.72201,-11.22532 0.0345,-0.0397 2.34511,-3.31205 2.61925,-3.92885 0.50466,-1.13549 0.68625,-2.39125 1.12254,-3.5547 0.16677,-0.44469 0.44606,-0.84887 0.56126,-1.30961 0.0756,-0.30253 -0.0575,-0.62897 0,-0.93546 0.13105,-0.69885 0.46072,-1.35406 0.56126,-2.05796 0.29094,-2.03652 0,-4.30019 0,-6.36103 0,-2.74397 0,-5.48794 0,-8.2319 0,-1.16372 0.0967,-2.3943 0,-3.55468 -0.0879,-1.05515 -0.34411,-1.53354 -0.56126,-2.61924 -0.0865,-0.43241 -0.0574,-0.88815 -0.18708,-1.30962 -1.31657,-4.27888 -5.48198,-7.09916 -7.67064,-10.85114 -0.65593,-1.12446 -1.10472,-2.48207 -1.87087,-3.55469 -0.15381,-0.2153 -0.43,-0.33154 -0.56129,-0.56127 -0.12756,-0.22325 -0.0721,-0.51837 -0.18709,-0.74835 -0.0565,-0.11299 -0.88156,-1.44285 -0.93543,-1.49671 -0.0441,-0.0441 -0.14298,0.0441 -0.18709,0 -0.0986,-0.0986 -0.0885,-0.27557 -0.18708,-0.37418 -0.44099,-0.44097 -1.03061,-0.70821 -1.49673,-1.12253 -1.14839,-1.02079 -2.30854,-1.78849 -3.55467,-2.61924 -0.37703,-0.25136 -1.07712,-0.39343 -1.49672,-0.56127 -0.63588,-0.25435 -1.30683,-0.74649 -1.87087,-1.12253 -0.1038,-0.0692 -0.26263,0.0558 -0.37418,0 -0.36322,-0.18161 -0.47993,-0.54702 -0.74837,-0.74835 -0.15777,-0.11833 -0.39717,-0.0777 -0.56126,-0.18709 -0.0519,-0.0346 0,-0.12473 0,-0.18709 -0.0624,-0.0624 -0.10822,-0.14765 -0.18709,-0.18709 -0.15999,-0.08 -0.40127,-0.10708 -0.56126,-0.18709 -0.11832,-0.0592 -0.12793,-0.34459 -0.18709,-0.37417 -0.39023,-0.19512 -0.46992,-0.0638 -0.93546,-0.37418 -0.14676,-0.0978 -0.20682,-0.3184 -0.37417,-0.37418 -0.48088,-0.1603 -1.96279,-0.46937 -2.43216,0 -0.10871,0.10873 -0.10845,0.59113 -0.18708,0.74836 -0.38931,0.77861 0.013,-0.20001 -0.37418,0.18708 -0.30033,0.30035 -0.31117,0.89346 -0.93543,1.30963 -0.94634,0.63088 -1.84391,1.04218 -2.80633,1.68379 -0.51589,0.34392 -1.47259,0.53714 -1.8709,0.93545 -0.1203,0.12032 -0.475,0.63901 -0.74834,0.74835 -1.22846,0.49138 -0.8417,0.43639 -1.8709,1.12253 -0.4685,0.31235 -1.18004,0.49648 -1.68378,0.74836 -2.24666,1.12332 0.8047,-0.29574 -0.93546,0.74835 -1.06267,0.63762 -2.11704,1.16191 -3.1805,1.87089 -0.98084,0.65389 0.8107,-0.43654 -0.18709,0.56126 -0.26212,0.26213 -0.58341,0.20925 -0.74835,0.37418 -0.14197,0.14197 -0.17817,0.73944 -0.37417,0.93545 -0.0441,0.0441 -0.14301,-0.0441 -0.18709,0 -0.73099,0.73098 -1.31299,1.87425 -1.8709,2.43215 -0.56586,0.56587 -1.3576,0.67281 -2.05798,0.93544 -0.71652,0.2687 -1.43166,0.80938 -2.05798,1.12253 -0.64175,0.32089 -0.97629,1.27904 -1.49669,1.6838 -0.39688,0.30868 -0.89774,0.46003 -1.30964,0.74836 -0.38761,0.27134 -0.75393,0.81445 -0.93543,0.93544 -0.45779,0.30519 -1.0609,0.45782 -1.4967,0.74835 -0.22016,0.14677 -0.3742,0.37418 -0.56129,0.56127 -0.24944,0.18709 -0.48392,0.396 -0.74834,0.56127 -1.75393,1.0962 0.13226,-0.28158 -1.30961,0.74835 -0.77793,0.55566 -1.38779,1.44224 -2.24507,1.87089 -1.28093,0.64045 -2.47756,1.67362 -3.74179,2.43215 -0.80023,0.48015 -1.76768,1.01933 -2.43213,1.6838 -0.19722,0.19721 -0.2195,0.5163 -0.3742,0.74835 -0.24318,0.36478 -0.78981,0.85637 -1.12252,1.12253 -0.38285,0.30629 -0.89482,0.87366 -1.30961,1.12254 -0.16912,0.10146 -0.39719,0.0777 -0.56129,0.18709 -0.82613,0.55076 -1.36712,1.43193 -2.24507,1.87087 -0.11832,0.0592 -0.12792,0.34462 -0.18708,0.3742 -0.11155,0.0558 -0.28596,-0.0882 -0.37418,0 -0.19719,0.19719 -0.19563,0.53409 -0.37417,0.74835 -0.43183,0.51821 -1.14414,0.71779 -1.68378,1.12252 -0.12475,0.12472 -0.24948,0.24945 -0.3742,0.37417 0,0.0624 0.0441,0.14301 0,0.18712 -0.76999,0.76999 -1.99639,0.88923 -2.80633,1.49669 -0.11359,0.2272 -0.15989,0.41841 -0.37417,0.56126 -0.76359,0.50909 -1.32734,1.09929 -2.05796,1.68381 -0.62733,0.50186 -1.42055,0.83153 -2.05798,1.30961 -0.59614,0.44709 -1.09847,1.04145 -1.68381,1.49672 -0.46964,0.36526 -1.25066,0.6894 -1.68378,1.12252 -0.0986,0.0986 -0.0885,0.27559 -0.18712,0.37417 -0.76173,0.76177 -1.90833,1.27225 -2.80633,1.8709 -0.29352,0.19569 -0.47733,0.52253 -0.74834,0.74835 -1.4374,1.19785 -2.67714,2.53807 -3.92885,3.92887 -0.66522,0.73912 -1.26929,1.61412 -2.05799,2.24507 -1.20369,0.96295 -3.48636,2.62933 -4.86431,3.18051 -0.70178,0.28072 -1.14403,0.29138 -1.68378,0.56126 -0.21161,0.1058 -1.40131,0.0991 -1.49672,-0.18709 -0.14819,-0.44461 0.22148,-0.3398 -0.18709,-0.74835 -0.0441,-0.0441 -0.12472,0 -0.18708,0 -0.12473,-0.12472 -0.26401,-0.23646 -0.37418,-0.37417 -0.14047,-0.17561 -0.27363,-0.36018 -0.37417,-0.56129 -0.0279,-0.0558 0.0519,-0.15248 0,-0.18709 -0.34809,-0.23203 -0.77859,-0.32313 -1.12255,-0.56126 -1.29291,0.12169 -1.06397,-1.18795 -1.68378,-1.6838 -0.15402,-0.12319 -0.39719,-0.0777 -0.56129,-0.18709 -0.0519,-0.0346 0.0279,-0.13131 0,-0.18709 -0.11223,-0.2245 -0.449,-0.33676 -0.56126,-0.56126 -0.0558,-0.11155 0.0692,-0.2704 0,-0.37417 -0.0773,-0.11602 -0.27556,-0.0885 -0.37417,-0.18709 -0.34441,-0.34441 -0.53017,-0.85235 -0.93544,-1.12255 -1.54564,-1.03042 -3.14976,-2.15278 -3.74179,-3.92885 -0.19439,-0.58319 0.84323,-1.74704 1.30964,-2.05798 0.87743,-0.58497 2.44258,-1.32006 3.1805,-2.05796 0.47379,-0.47378 0.74284,-0.88455 1.30963,-1.30963 0.12716,-0.0954 0.66231,-0.10107 0.74835,-0.18709 0.0441,-0.0441 -0.0519,-0.1525 0,-0.18708 0.46763,-0.31176 1.21211,-0.51253 1.68378,-0.74835 0.37272,-0.18635 0.46871,-0.72573 0.74838,-0.93546 0.15777,-0.11832 0.39216,-0.0856 0.56126,-0.18709 0.52581,-0.31549 1.05674,-0.86966 1.49669,-1.30961 0.36582,-0.36581 1.68619,-2.2498 1.8709,-2.61924 0.16084,-0.32168 0.0541,-0.79002 0.18709,-1.12255 0.0655,-0.16375 0.2953,-0.2164 0.37417,-0.37417 0.10552,-0.21101 0.10488,-0.68882 0.18709,-0.93544 0.303,-0.909 0.93297,-1.74035 1.30963,-2.61924 0.1955,-0.4562 0.068,-0.57816 0.18709,-0.93544 0.25529,-0.76589 0.80166,-1.49639 1.12252,-2.24506 0.59777,-1.39479 1.02764,-2.80362 1.68381,-4.11595 0.0558,-0.11156 -0.0558,-0.26262 0,-0.37418 0.8419,-1.68381 1.75064,-3.46786 2.80633,-5.0514 0.0773,-0.11602 0.12472,-0.24945 0.18708,-0.37417 0.0624,-0.18709 0.0777,-0.39718 0.18709,-0.56127 0.0346,-0.0519 0.14301,0.0441 0.18709,0 0.20145,-0.20144 1.22452,-1.85941 1.30963,-2.05798 0.10128,-0.23634 0.0548,-0.52786 0.18709,-0.74835 0.0717,-0.11957 0.29051,-0.0755 0.37417,-0.18709 0.11832,-0.15777 0.0989,-0.38488 0.18709,-0.56126 0.56232,-1.12467 1.3017,-2.04212 1.87089,-3.18051 0.39281,-0.78562 1.05551,-1.47296 1.4967,-2.24507 0.66926,-1.17121 1.45621,-2.35116 2.05798,-3.55468 0.53544,-1.07087 -0.11626,-0.11808 0.37418,-0.93544 0.5729,-0.95484 1.24814,-1.97693 1.6838,-2.99342 0.14119,-0.32945 0.41942,-1.58719 0.56126,-1.87089 0.0789,-0.15777 0.29531,-0.21641 0.37418,-0.37418 0.0558,-0.11156 -0.0463,-0.25837 0,-0.37418 0.167,-0.41753 0.52522,-0.73207 0.74835,-1.12253 0.34959,-0.61177 0.63986,-1.27972 0.93546,-1.87088 0.1592,-0.31842 0.6215,-0.61833 0.74834,-0.93545 0.0979,-0.24463 0.2109,-1.03749 0.37418,-1.30962 0.0908,-0.15125 0.27633,-0.22741 0.37417,-0.37417 0.23945,-0.35916 0.58716,-1.57441 0.74835,-2.05798 0.0624,-0.12473 0.12472,-0.24945 0.18709,-0.37418 0.0624,0 0.1592,0.0558 0.18711,0 0.19719,-0.39441 -0.01,-0.9152 0.18709,-1.30962 0.74699,-1.49403 2.05896,-2.80832 2.80633,-4.30304 0.41883,-0.83767 0.84719,-1.47436 1.3096,-2.24506 0.10147,-0.16911 0.0777,-0.39718 0.18709,-0.56127 0.0346,-0.0519 0.14301,0.0441 0.18709,0 0.008,-0.008 0.38314,-1.22951 0.56126,-1.49671 0.54911,-0.82367 1.30551,-1.85031 1.49672,-2.80633 0.0744,-0.37197 0.0175,-0.78324 0.18709,-1.12253 0.0789,-0.15776 0.24945,-0.24945 0.37417,-0.37417 0.12472,-0.24946 0.27062,-0.48941 0.37417,-0.74836 0.12878,-0.32193 -0.10969,-0.79342 0,-1.12253 0.43834,-1.31501 0.94795,-2.78406 0.47975,-4.15294 z"
       id="path274852" />
    <path
       style="fill:none;stroke:#000000;stroke-width:0.529167;stroke-linecap:butt;stroke-linejoin:miter;stroke-miterlimit:4;stroke-dasharray:none;stroke-opacity:1"
       d="m 138.78542,50.05128 -23.8125,26.45833 0.9051,3.63067 -5.8985,-0.45777 3.1729,4.99348 -5.8986,-0.45776 0.9051,3.63066 -38.1651,44.22322"
       id="path43707-5"
       sodipodi:nodetypes="cccccccc" />
    <path
       style="fill:none;stroke:#000000;stroke-width:0.529167;stroke-linecap:butt;stroke-linejoin:miter;stroke-miterlimit:4;stroke-dasharray:none;stroke-opacity:1"
       d="m 99.09792,97.67628 10.5834,9.26042"
       id="path8043-4"
       sodipodi:nodetypes="cc" />
    <path
       style="fill:none;stroke:#000000;stroke-width:0.529167;stroke-linecap:butt;stroke-linejoin:miter;stroke-miterlimit:4;stroke-dasharray:none;stroke-opacity:1"
       d="m 113.65002,110.90545 12.6441,11.39616"
       id="path8045-4"
       sodipodi:nodetypes="cc" />
    <path
       style="fill:none;stroke:#000000;stroke-width:0.529167;stroke-linecap:butt;stroke-linejoin:miter;stroke-miterlimit:4;stroke-dasharray:none;stroke-opacity:1"
       d="m 111.00422,113.55128 5.499,-5.72408"
       id="path8127-6" />
    <path
       style="fill:none;stroke:#000000;stroke-width:0.529167;stroke-linecap:butt;stroke-linejoin:miter;stroke-miterlimit:4;stroke-dasharray:none;stroke-opacity:1"
       d="m 107.11522,109.60788 5.4989,-5.72408"
       id="path8129-5" />
    <path
       style="fill:none;stroke:#000000;stroke-width:0.529167;stroke-linecap:butt;stroke-linejoin:miter;stroke-miterlimit:4;stroke-dasharray:none;stroke-opacity:1"
       d="m 109.68132,44.75961 -37.0417,74.08333"
       id="path25667" />
    <path
       style="fill:none;stroke:#000000;stroke-width:0.529167;stroke-linecap:butt;stroke-linejoin:miter;stroke-miterlimit:4;stroke-dasharray:none;stroke-opacity:1"
       d="m 83.22292,129.42628 68.7917,-52.91667"
       id="path25669" />
    <path
       style="fill:none;stroke:#000000;stroke-width:0.529167;stroke-linecap:butt;stroke-linejoin:miter;stroke-miterlimit:4;stroke-dasharray:none;stroke-opacity:1"
       d="m 62.05641,124.13455 15.87494,15.87506"
       id="path26020" />
    <text
       xml:space="preserve"
       style="font-style:normal;font-weight:normal;font-size:6.35px;line-height:1.25;font-family:sans-serif;fill:#000000;fill-opacity:1;stroke:none;stroke-width:0.264583;stroke-linecap:butt;stroke-linejoin:round"
       x="18.873568"
       y="82.865677"
       id="text40246"><tspan
         sodipodi:role="line"
         id="tspan40244"
         style="font-size:6.35px;stroke-width:0.264583"
         x="18.873568"
         y="82.865677">Extracellular solution</tspan></text>
    <text
       xml:space="preserve"
       style="font-style:normal;font-weight:normal;font-size:6.35px;line-height:1.25;font-family:sans-serif;white-space:pre;inline-size:48.1534;fill:#000000;fill-opacity:1;stroke:none;stroke-width:0.529167;stroke-linecap:butt;stroke-linejoin:round;stroke-miterlimit:4;stroke-dasharray:none"
       x="520.70081"
       y="297.39166"
       id="text49860"
       transform="translate(-443.29782,-153.67789)"><tspan
         x="520.70081"
         y="297.39166"
         id="tspan1698">Liquid Junction </tspan><tspan
         x="520.70081"
         y="305.32916"
         id="tspan1700">Potential (LJP)</tspan></text>
    <path
       style="fill:none;fill-rule:nonzero;stroke:none;stroke-width:0.529167;stroke-linecap:butt;stroke-linejoin:miter;stroke-miterlimit:4;stroke-dasharray:none;stroke-opacity:1"
       d="m 59.74126,143.05235 c 0,0 -3.58276,-3.47639 -3.58276,-3.47639 -0.736992,0.75954 0.634792,6.51456 -0.1022,7.2741 0.736992,-0.75954 6.530728,0.43822 7.26772,-0.32132 0,0 -3.58276,-3.47639 -3.58276,-3.47639 z"
       id="path45991-0-9"
       inkscape:path-effect="#path-effect45993-6-5"
       inkscape:original-d="m 59.74126,143.05235 -3.68496,3.79771" />
    <path
       style="fill:none;stroke:#000000;stroke-width:0.529167;stroke-linecap:butt;stroke-linejoin:miter;stroke-miterlimit:4;stroke-dasharray:none;stroke-opacity:1"
       d="M 67.34801,134.71794 56.0563,146.85007"
       id="path46465-3-0"
       sodipodi:nodetypes="cc" />
    <path
       style="fill:none;stroke:#000000;stroke-width:0.529167;stroke-linecap:butt;stroke-linejoin:miter;stroke-miterlimit:4;stroke-dasharray:none;stroke-opacity:1"
       d="m 52.25858,143.16512 7.59544,7.36993"
       id="path46467-3-0" />
    <path
       style="fill:none;stroke:#000000;stroke-width:0.529167;stroke-linecap:butt;stroke-linejoin:miter;stroke-miterlimit:4;stroke-dasharray:none;stroke-opacity:1"
       d="m 52.28676,145.03579 5.69658,5.52745"
       id="path46469-3-9" />
    <path
       style="fill:none;stroke:#000000;stroke-width:0.529167;stroke-linecap:butt;stroke-linejoin:miter;stroke-miterlimit:4;stroke-dasharray:none;stroke-opacity:1"
       d="m 52.31495,146.90647 3.79772,3.68497"
       id="path46471-7-8" />
    <path
       style="fill:none;stroke:#000000;stroke-width:0.529167;stroke-linecap:butt;stroke-linejoin:miter;stroke-miterlimit:4;stroke-dasharray:none;stroke-opacity:1"
       d="m 52.34316,148.77714 1.89885,1.84247"
       id="path46473-0-5" />
    <path
       style="fill:none;fill-rule:nonzero;stroke:none;stroke-width:0.529167;stroke-linecap:butt;stroke-linejoin:miter;stroke-miterlimit:4;stroke-dasharray:none;stroke-opacity:1"
       d="m 126.87926,122.81169 c 0,0 -3.33715,3.7128 -3.33715,3.7128 0.78711,0.70747 6.4856,-0.8829 7.27271,-0.17542 -0.78711,-0.70748 0.18871,-6.5427 -0.59841,-7.25018 0,0 -3.33715,3.7128 -3.33715,3.7128 z"
       id="path45991-0-3"
       inkscape:path-effect="#path-effect45993-6-6"
       inkscape:original-d="m 126.87926,122.81169 3.93556,3.53738" />
    <path
       style="fill:none;stroke:#000000;stroke-width:0.529167;stroke-linecap:butt;stroke-linejoin:miter;stroke-miterlimit:4;stroke-dasharray:none;stroke-opacity:1"
       d="m 125.55635,121.48878 5.25847,4.86029"
       id="path46465-3-8"
       sodipodi:nodetypes="cc" />
    <path
       style="fill:none;stroke:#000000;stroke-width:0.529167;stroke-linecap:butt;stroke-linejoin:miter;stroke-miterlimit:4;stroke-dasharray:none;stroke-opacity:1"
       d="m 127.27745,130.28462 7.07475,-7.87112"
       id="path46467-3-3" />
    <path
       style="fill:none;stroke:#000000;stroke-width:0.529167;stroke-linecap:butt;stroke-linejoin:miter;stroke-miterlimit:4;stroke-dasharray:none;stroke-opacity:1"
       d="m 129.14568,130.18508 5.30607,-5.90334"
       id="path46469-3-1" />
    <path
       style="fill:none;stroke:#000000;stroke-width:0.529167;stroke-linecap:butt;stroke-linejoin:miter;stroke-miterlimit:4;stroke-dasharray:none;stroke-opacity:1"
       d="m 131.01392,130.08554 3.53738,-3.93556"
       id="path46471-7-2" />
    <path
       style="fill:none;stroke:#000000;stroke-width:0.529167;stroke-linecap:butt;stroke-linejoin:miter;stroke-miterlimit:4;stroke-dasharray:none;stroke-opacity:1"
       d="m 132.88216,129.98598 1.76868,-1.96777"
       id="path46473-0-9" />
    <path
       style="fill:none;stroke:#000000;stroke-width:0.529167;stroke-linecap:butt;stroke-linejoin:miter;stroke-miterlimit:4;stroke-dasharray:none;stroke-opacity:1"
       d="m 63.37926,130.74919 7.9375,7.9375"
       id="path268047"
       sodipodi:nodetypes="cc" />
    <path
       style="fill:#ffff00;fill-opacity:0.4;stroke:none;stroke-width:0.966484"
       d="m 389.7106,241.27233 c 0,-0.22524 2.0713,-2.47124 4.60288,-4.9911 2.53159,-2.51986 4.60288,-4.84585 4.60288,-5.16889 0,-0.32303 -0.32034,-0.85319 -0.71188,-1.17813 -0.57256,-0.47519 -1.74858,0.46149 -6.00931,4.78632 l -5.29744,5.37712 -18.15581,-15.92726 c -9.98569,-8.75999 -18.15581,-16.09802 -18.15581,-16.30672 0,-0.20869 6.93154,-8.41131 15.40342,-18.22802 8.47188,-9.81672 15.68055,-18.29675 16.01927,-18.84453 0.50235,-0.81241 0.33533,-2.12695 -0.90631,-7.13312 -0.83718,-3.37545 -1.48675,-6.15924 -1.44347,-6.18621 0.0433,-0.0269 5.13576,0.36269 11.31664,0.86591 6.18088,0.50321 11.30989,0.84302 11.39779,0.75511 0.0879,-0.0879 -2.4705,-4.27493 -5.68533,-9.30452 -3.21483,-5.02959 -5.78575,-9.20955 -5.71316,-9.28883 0.0726,-0.0793 4.77603,0.23666 10.45207,0.70206 5.67603,0.46539 10.41222,0.75402 10.52485,0.64139 0.11264,-0.11264 -0.59686,-3.38606 -1.57666,-7.27428 -1.48296,-5.88493 -1.67101,-7.20891 -1.12227,-7.90159 0.36255,-0.45765 12.92345,-14.4676 27.91311,-31.133226 l 27.25392,-30.301131 39.99928,29.969416 c 21.99961,16.483181 40.29885,30.248711 40.66499,30.590081 0.53432,0.49819 -0.57586,1.54275 -5.62575,5.29322 -3.46029,2.5699 -6.74909,5.08138 -7.30844,5.58108 -0.55935,0.49968 -4.01152,3.21467 -7.67147,6.0333 -20.57065,15.84201 -24.57249,18.68623 -28.43208,20.20754 -3.91098,1.54156 -6.67048,3.04678 -6.39698,3.48932 0.13528,0.21889 -0.48948,0.81684 -1.38837,1.32878 -9.56624,5.44824 -12.16794,7.19614 -11.95027,8.02851 0.16069,0.61452 -0.20323,1.03593 -1.1924,1.38075 -0.98284,0.34262 -1.61128,1.06472 -2.02952,2.332 -0.33321,1.00963 -0.81278,1.83569 -1.06571,1.83569 -0.25293,0 -1.41493,1.20826 -2.58222,2.68502 -2.34149,2.96225 -9.92742,8.9917 -12.73295,10.12039 -4.42993,1.78221 -8.85767,4.84349 -10.88035,7.52251 -1.1371,1.50608 -3.12418,3.34372 -4.41574,4.08366 -1.29155,0.73993 -3.40092,2.31057 -4.68747,3.49031 -1.28656,1.17974 -3.43375,2.62915 -4.77154,3.22092 -1.3378,0.59177 -3.52884,2.06178 -4.86899,3.26668 -1.34014,1.20491 -3.55176,2.7632 -4.9147,3.46287 -1.36294,0.69967 -3.98793,2.65649 -5.83332,4.34847 -1.84539,1.69198 -4.27583,3.63171 -5.40098,4.3105 -2.14778,1.29574 -17.39883,11.21842 -19.81796,12.89402 -0.77354,0.53579 -1.40644,0.78986 -1.40644,0.56461 z"
       id="path1588"
       transform="matrix(0.26458333,0,0,0.26458333,7.2608271,42.923387)" />
    <text
       xml:space="preserve"
       style="fill:#000000;fill-rule:nonzero;stroke:none;stroke-width:0.264583;stroke-linecap:butt;stroke-linejoin:round;stroke-miterlimit:4;stroke-dasharray:none;stroke-opacity:1;font-style:normal;font-weight:normal;font-size:6.35px;line-height:1.25;font-family:sans-serif;fill-opacity:1"
       x="127.46178"
       y="67.462692"
       id="text43566"
       transform="translate(3.3333335e-8)"><tspan
         sodipodi:role="line"
         id="tspan43564"
         style="font-size:6.35px;stroke-width:0.264583"
         x="127.46178"
         y="67.462692">Internal </tspan><tspan
         sodipodi:role="line"
         style="font-size:6.35px;stroke-width:0.264583"
         x="127.46178"
         y="75.400192"
         id="tspan43568">Solution</tspan></text>
  </g>
</svg>
