<?xml version="1.0" encoding="UTF-8" standalone="no"?>
<!-- Created with Inkscape (http://www.inkscape.org/) -->

<svg
   width="94.256355mm"
   height="42.562767mm"
   viewBox="0 0 94.256354 42.562767"
   version="1.1"
   id="svg4390"
   inkscape:version="1.2.2 (732a01da63, 2022-12-09)"
   sodipodi:docname="single compt.svg"
   xmlns:inkscape="http://www.inkscape.org/namespaces/inkscape"
   xmlns:sodipodi="http://sodipodi.sourceforge.net/DTD/sodipodi-0.dtd"
   xmlns="http://www.w3.org/2000/svg"
   xmlns:svg="http://www.w3.org/2000/svg">
  <sodipodi:namedview
     id="namedview4392"
     pagecolor="#ffffff"
     bordercolor="#000000"
     borderopacity="0.25"
     inkscape:showpageshadow="2"
     inkscape:pageopacity="0.0"
     inkscape:pagecheckerboard="0"
     inkscape:deskcolor="#d1d1d1"
     inkscape:document-units="mm"
     showgrid="false"
     inkscape:zoom="0.97764854"
     inkscape:cx="-112.51487"
     inkscape:cy="166.72658"
     inkscape:window-width="1920"
     inkscape:window-height="974"
     inkscape:window-x="-11"
     inkscape:window-y="-11"
     inkscape:window-maximized="1"
     inkscape:current-layer="g2927"
     inkscape:pageshadow="2">
    <inkscape:grid
       type="xygrid"
       id="grid449"
       originx="-14.034744"
       originy="-32.303827" />
  </sodipodi:namedview>
  <defs
     id="defs4387">
    <marker
       style="overflow:visible"
       id="Arrow1Lend-6"
       refX="0"
       refY="0"
       orient="auto"
       inkscape:stockid="Arrow1Lend"
       inkscape:isstock="true">
      <path
         transform="matrix(-0.8,0,0,-0.8,-10,0)"
         style="fill:context-stroke;fill-rule:evenodd;stroke:context-stroke;stroke-width:1pt"
         d="M 0,0 5,-5 -12.5,0 5,5 Z"
         id="path44655-1" />
    </marker>
    <marker
       style="overflow:visible"
       id="Arrow1Lend-5"
       refX="0"
       refY="0"
       orient="auto"
       inkscape:stockid="Arrow1Lend"
       inkscape:isstock="true">
      <path
         transform="matrix(-0.8,0,0,-0.8,-10,0)"
         style="fill:context-stroke;fill-rule:evenodd;stroke:context-stroke;stroke-width:1pt"
         d="M 0,0 5,-5 -12.5,0 5,5 Z"
         id="path44655-5" />
    </marker>
    <inkscape:path-effect
       effect="powerstroke"
       id="path-effect45993"
       is_visible="true"
       lpeversion="1"
       offset_points="0,4.99214"
       not_jump="false"
       sort_points="true"
       interpolator_type="CubicBezierJohan"
       interpolator_beta="0.2"
       start_linecap_type="zerowidth"
       linejoin_type="extrp_arc"
       miter_limit="4"
       scale_width="1"
       end_linecap_type="zerowidth" />
    <marker
       style="overflow:visible"
       id="Arrow1Lend"
       refX="0"
       refY="0"
       orient="auto"
       inkscape:stockid="Arrow1Lend"
       inkscape:isstock="true">
      <path
         transform="matrix(-0.8,0,0,-0.8,-10,0)"
         style="fill:context-stroke;fill-rule:evenodd;stroke:context-stroke;stroke-width:1pt"
         d="M 0,0 5,-5 -12.5,0 5,5 Z"
         id="path44655" />
    </marker>
    <marker
       style="overflow:visible"
       id="marker44932"
       refX="0"
       refY="0"
       orient="auto"
       inkscape:stockid="Arrow1Lstart"
       inkscape:isstock="true">
      <path
         transform="matrix(0.8,0,0,0.8,10,0)"
         style="fill:context-stroke;fill-rule:evenodd;stroke:context-stroke;stroke-width:1pt"
         d="M 0,0 5,-5 -12.5,0 5,5 Z"
         id="path44930" />
    </marker>
    <marker
       style="overflow:visible"
       id="marker4528"
       refX="0"
       refY="0"
       orient="auto"
       inkscape:stockid="Arrow1Lend"
       inkscape:isstock="true">
      <path
         transform="matrix(-0.8,0,0,-0.8,-10,0)"
         style="fill:context-stroke;fill-rule:evenodd;stroke:context-stroke;stroke-width:1pt"
         d="M 0,0 5,-5 -12.5,0 5,5 Z"
         id="path4526" />
    </marker>
    <marker
       style="overflow:visible"
       id="marker44932-7"
       refX="0"
       refY="0"
       orient="auto"
       inkscape:stockid="Arrow1Lstart"
       inkscape:isstock="true">
      <path
         transform="matrix(0.8,0,0,0.8,10,0)"
         style="fill:context-stroke;fill-rule:evenodd;stroke:context-stroke;stroke-width:1pt"
         d="M 0,0 5,-5 -12.5,0 5,5 Z"
         id="path44930-5" />
    </marker>
    <marker
       style="overflow:visible"
       id="Arrow1Lend-63"
       refX="0"
       refY="0"
       orient="auto"
       inkscape:stockid="Arrow1Lend"
       inkscape:isstock="true">
      <path
         transform="matrix(-0.8,0,0,-0.8,-10,0)"
         style="fill:context-stroke;fill-rule:evenodd;stroke:context-stroke;stroke-width:1pt"
         d="M 0,0 5,-5 -12.5,0 5,5 Z"
         id="path44655-8" />
    </marker>
    <marker
       style="overflow:visible"
       id="Arrow1Lend-6-9"
       refX="0"
       refY="0"
       orient="auto"
       inkscape:stockid="Arrow1Lend"
       inkscape:isstock="true">
      <path
         transform="matrix(-0.8,0,0,-0.8,-10,0)"
         style="fill:context-stroke;fill-rule:evenodd;stroke:context-stroke;stroke-width:1pt"
         d="M 0,0 5,-5 -12.5,0 5,5 Z"
         id="path44655-1-4" />
    </marker>
    <marker
       style="overflow:visible"
       id="Arrow1Lend-5-1"
       refX="0"
       refY="0"
       orient="auto"
       inkscape:stockid="Arrow1Lend"
       inkscape:isstock="true">
      <path
         transform="matrix(-0.8,0,0,-0.8,-10,0)"
         style="fill:context-stroke;fill-rule:evenodd;stroke:context-stroke;stroke-width:1pt"
         d="M 0,0 5,-5 -12.5,0 5,5 Z"
         id="path44655-5-7" />
    </marker>
    <inkscape:path-effect
       effect="powerstroke"
       id="path-effect45993-6"
       is_visible="true"
       lpeversion="1"
       offset_points="0,4.99214"
       not_jump="false"
       sort_points="true"
       interpolator_type="CubicBezierJohan"
       interpolator_beta="0.2"
       start_linecap_type="zerowidth"
       linejoin_type="extrp_arc"
       miter_limit="4"
       scale_width="1"
       end_linecap_type="zerowidth" />
    <marker
       style="overflow:visible"
       id="Arrow1Lend-8"
       refX="0"
       refY="0"
       orient="auto"
       inkscape:stockid="Arrow1Lend"
       inkscape:isstock="true">
      <path
         transform="matrix(-0.8,0,0,-0.8,-10,0)"
         style="fill:context-stroke;fill-rule:evenodd;stroke:context-stroke;stroke-width:1pt"
         d="M 0,0 5,-5 -12.5,0 5,5 Z"
         id="path44655-56" />
    </marker>
    <marker
       style="overflow:visible"
       id="marker44932-7-1"
       refX="0"
       refY="0"
       orient="auto"
       inkscape:stockid="Arrow1Lstart"
       inkscape:isstock="true">
      <path
         transform="matrix(0.8,0,0,0.8,10,0)"
         style="fill:context-stroke;fill-rule:evenodd;stroke:context-stroke;stroke-width:1pt"
         d="M 0,0 5,-5 -12.5,0 5,5 Z"
         id="path44930-5-3" />
    </marker>
    <marker
       style="overflow:visible"
       id="Arrow1Lend-63-2"
       refX="0"
       refY="0"
       orient="auto"
       inkscape:stockid="Arrow1Lend"
       inkscape:isstock="true">
      <path
         transform="matrix(-0.8,0,0,-0.8,-10,0)"
         style="fill:context-stroke;fill-rule:evenodd;stroke:context-stroke;stroke-width:1pt"
         d="M 0,0 5,-5 -12.5,0 5,5 Z"
         id="path44655-8-5" />
    </marker>
    <marker
       style="overflow:visible"
       id="marker44932-3"
       refX="0"
       refY="0"
       orient="auto"
       inkscape:stockid="Arrow1Lstart"
       inkscape:isstock="true">
      <path
         transform="matrix(0.8,0,0,0.8,10,0)"
         style="fill:context-stroke;fill-rule:evenodd;stroke:context-stroke;stroke-width:1pt"
         d="M 0,0 5,-5 -12.5,0 5,5 Z"
         id="path44930-53" />
    </marker>
    <marker
       style="overflow:visible"
       id="marker1659"
       refX="0"
       refY="0"
       orient="auto"
       inkscape:stockid="Arrow1Lend"
       inkscape:isstock="true">
      <path
         transform="matrix(-0.8,0,0,-0.8,-10,0)"
         style="fill:context-stroke;fill-rule:evenodd;stroke:context-stroke;stroke-width:1pt"
         d="M 0,0 5,-5 -12.5,0 5,5 Z"
         id="path1657" />
    </marker>
  </defs>
  <g
     inkscape:label="Layer 1"
     inkscape:groupmode="layer"
     id="layer1"
     transform="translate(-105.17672,-88.589286)">
    <g
       id="g2921"
       transform="translate(0.81189707,-44.113075)">
      <g
         id="g2927"
         transform="translate(1.6237942,24.898177)">
        <g
           id="g4485"
           style="stroke-linecap:butt;stroke-linejoin:round"
           transform="matrix(0.47877137,0,0,0.47877137,45.103912,-269.6871)">
          <path
             style="fill:none;stroke:#000000;stroke-width:0.529167;stroke-linecap:butt;stroke-linejoin:miter;stroke-miterlimit:4;stroke-dasharray:none;stroke-opacity:1"
             d="m 145.52091,799.04167 c 0,15.875 0,15.875 0,15.875 h -21.16667 v 21.16667"
             id="path43548" />
          <path
             style="fill:none;stroke:#000000;stroke-width:0.529167;stroke-linecap:butt;stroke-linejoin:miter;stroke-miterlimit:4;stroke-dasharray:none;stroke-opacity:1"
             d="m 145.52091,814.91667 42.33335,1e-5 m 0,52.91667 h -63.50002 v -29.10418"
             id="path43550"
             sodipodi:nodetypes="ccccc" />
          <path
             style="fill:none;stroke:#000000;stroke-width:0.529167;stroke-linecap:butt;stroke-linejoin:miter;stroke-miterlimit:4;stroke-dasharray:none;stroke-opacity:1"
             d="m 120.38548,838.72917 h 7.93751"
             id="path43703" />
          <path
             style="fill:none;stroke:#000000;stroke-width:0.529167;stroke-linecap:butt;stroke-linejoin:miter;stroke-miterlimit:4;stroke-dasharray:none;stroke-opacity:1"
             d="m 120.38548,836.08334 h 7.93751"
             id="path43705" />
          <path
             style="fill:none;stroke:#000000;stroke-width:0.529167;stroke-linecap:butt;stroke-linejoin:miter;stroke-miterlimit:4;stroke-dasharray:none;stroke-opacity:1"
             d="m 150.81258,814.91667 v 13.22917 l 2.64583,2.64583 -5.29166,2.64583 5.29166,2.64584 -5.29166,2.64583 2.64583,2.64583 v 10.58334"
             id="path43707" />
          <path
             style="fill:none;stroke:#000000;stroke-width:0.529167;stroke-linecap:butt;stroke-linejoin:miter;stroke-miterlimit:4;stroke-dasharray:none;stroke-opacity:1"
             d="m 150.81258,854.60417 v 13.22917"
             id="path43709" />
          <path
             style="fill:none;stroke:#000000;stroke-width:0.529167;stroke-linecap:butt;stroke-linejoin:miter;stroke-miterlimit:4;stroke-dasharray:none;stroke-opacity:1"
             d="m 142.87508,854.60417 h 15.87501"
             id="path43711" />
          <path
             style="fill:none;stroke:#000000;stroke-width:0.529167;stroke-linecap:butt;stroke-linejoin:miter;stroke-miterlimit:4;stroke-dasharray:none;stroke-opacity:1"
             d="m 146.84383,851.95834 h 7.9375"
             id="path43713" />
          <path
             style="fill:none;stroke:#000000;stroke-width:0.529167;stroke-linecap:butt;stroke-linejoin:miter;stroke-miterlimit:4;stroke-dasharray:none;stroke-opacity:1"
             d="m 169.33343,814.91667 v 13.22917 l 2.64583,2.64583 -5.29166,2.64583 5.29166,2.64584 -5.29166,2.64583 2.64583,2.64583 v 10.58334"
             id="path43707-4" />
          <path
             style="fill:none;stroke:#000000;stroke-width:0.529167;stroke-linecap:butt;stroke-linejoin:miter;stroke-miterlimit:4;stroke-dasharray:none;stroke-opacity:1"
             d="m 169.33343,854.60417 v 13.22917"
             id="path43709-2" />
          <path
             style="fill:none;stroke:#000000;stroke-width:0.529167;stroke-linecap:butt;stroke-linejoin:miter;stroke-miterlimit:4;stroke-dasharray:none;stroke-opacity:1"
             d="m 161.39593,851.95835 h 15.87501"
             id="path43711-6" />
          <path
             style="fill:none;stroke:#000000;stroke-width:0.529167;stroke-linecap:butt;stroke-linejoin:miter;stroke-miterlimit:4;stroke-dasharray:none;stroke-opacity:1"
             d="m 165.36468,854.60416 h 7.9375"
             id="path43713-3" />
          <path
             style="fill:none;fill-opacity:1;stroke:#000000;stroke-width:0.529167;stroke-linecap:butt;stroke-linejoin:miter;stroke-miterlimit:4;stroke-dasharray:none;stroke-opacity:1;marker-end:url(#Arrow1Lend-6-9)"
             d="m 158.75004,844.02085 21.16667,-21.16667"
             id="path43715-3"
             sodipodi:nodetypes="cc" />
          <path
             style="fill:none;stroke:#000000;stroke-width:0.529167;stroke-linecap:butt;stroke-linejoin:miter;stroke-miterlimit:4;stroke-dasharray:none;stroke-opacity:1"
             d="m 187.85441,814.91667 v 13.22917 l 2.64583,2.64583 -5.29166,2.64583 5.29166,2.64584 -5.29166,2.64583 2.64583,2.64583 v 10.58334"
             id="path43707-46" />
          <path
             style="fill:none;stroke:#000000;stroke-width:0.529167;stroke-linecap:butt;stroke-linejoin:miter;stroke-miterlimit:4;stroke-dasharray:none;stroke-opacity:1"
             d="m 187.85441,854.60417 v 13.22917"
             id="path43709-4" />
          <path
             style="fill:none;stroke:#000000;stroke-width:0.529167;stroke-linecap:butt;stroke-linejoin:miter;stroke-miterlimit:4;stroke-dasharray:none;stroke-opacity:1"
             d="m 179.91692,854.60417 h 15.87499"
             id="path43711-9" />
          <path
             style="fill:none;stroke:#000000;stroke-width:0.529167;stroke-linecap:butt;stroke-linejoin:miter;stroke-miterlimit:4;stroke-dasharray:none;stroke-opacity:1"
             d="m 183.88552,851.95834 h 7.93749"
             id="path43713-4" />
          <path
             style="fill:none;fill-opacity:1;stroke:#000000;stroke-width:0.529167;stroke-linecap:butt;stroke-linejoin:miter;stroke-miterlimit:4;stroke-dasharray:none;stroke-opacity:1;marker-end:url(#Arrow1Lend-5-1)"
             d="m 177.27088,846.66668 21.16667,-23.8125"
             id="path43715-6"
             sodipodi:nodetypes="cc" />
          <path
             style="fill:none;fill-rule:nonzero;stroke:none;stroke-width:0.529167;stroke-linecap:butt;stroke-linejoin:miter;stroke-miterlimit:4;stroke-dasharray:none;stroke-opacity:1"
             d="m 145.52091,867.83334 c 0,0 -4.99214,0 -4.99214,0 0,1.05833 4.99214,4.23333 4.99214,5.29166 0,-1.05833 4.99214,-4.23333 4.99214,-5.29166 0,0 -4.99214,0 -4.99214,0 z"
             id="path45991"
             inkscape:path-effect="#path-effect45993-6"
             inkscape:original-d="M 145.52091,867.83334 V 873.125" />
          <path
             style="fill:none;stroke:#000000;stroke-width:0.529167;stroke-linecap:butt;stroke-linejoin:miter;stroke-miterlimit:4;stroke-dasharray:none;stroke-opacity:1"
             d="M 145.52091,867.83334 V 873.125"
             id="path46465" />
          <path
             style="fill:none;stroke:#000000;stroke-width:0.529167;stroke-linecap:butt;stroke-linejoin:miter;stroke-miterlimit:4;stroke-dasharray:none;stroke-opacity:1"
             d="m 140.22925,873.125 h 10.58333"
             id="path46467" />
          <path
             style="fill:none;stroke:#000000;stroke-width:0.529167;stroke-linecap:butt;stroke-linejoin:miter;stroke-miterlimit:4;stroke-dasharray:none;stroke-opacity:1"
             d="m 141.55216,874.44792 h 7.9375"
             id="path46469" />
          <path
             style="fill:none;stroke:#000000;stroke-width:0.529167;stroke-linecap:butt;stroke-linejoin:miter;stroke-miterlimit:4;stroke-dasharray:none;stroke-opacity:1"
             d="m 142.87508,875.77084 h 5.29167"
             id="path46471" />
          <path
             style="fill:none;stroke:#000000;stroke-width:0.529167;stroke-linecap:butt;stroke-linejoin:miter;stroke-miterlimit:4;stroke-dasharray:none;stroke-opacity:1"
             d="m 144.198,877.09375 h 2.64583"
             id="path46473" />
          <text
             xml:space="preserve"
             style="font-style:normal;font-weight:normal;font-size:7.3684px;line-height:1.25;font-family:sans-serif;fill:#000000;fill-opacity:1;stroke:none;stroke-width:0.529167;stroke-linecap:butt;stroke-linejoin:round;stroke-miterlimit:4;stroke-dasharray:none"
             x="128.91826"
             y="839.58911"
             id="text49893"><tspan
               sodipodi:role="line"
               id="tspan49891"
               style="font-size:7.3684px;stroke-width:0.529167;stroke-miterlimit:4;stroke-dasharray:none"
               x="128.91826"
               y="839.58911">Cm</tspan></text>
          <text
             xml:space="preserve"
             style="font-style:normal;font-weight:normal;font-size:7.3684px;line-height:1.25;font-family:sans-serif;fill:#000000;fill-opacity:1;stroke:none;stroke-width:0.529167;stroke-linecap:butt;stroke-linejoin:round;stroke-miterlimit:4;stroke-dasharray:none"
             x="140.2292"
             y="830.79175"
             id="text56485"><tspan
               sodipodi:role="line"
               id="tspan56483"
               style="font-size:7.3684px;stroke-width:0.529167;stroke-miterlimit:4;stroke-dasharray:none"
               x="140.2292"
               y="830.79175">Rm</tspan></text>
          <text
             xml:space="preserve"
             style="font-style:normal;font-weight:normal;font-size:7.3684px;line-height:1.25;font-family:sans-serif;fill:#000000;fill-opacity:1;stroke:none;stroke-width:0.529167;stroke-linecap:butt;stroke-linejoin:round;stroke-miterlimit:4;stroke-dasharray:none"
             x="135.00368"
             y="852.8183"
             id="text60327"><tspan
               sodipodi:role="line"
               id="tspan60325"
               style="font-size:7.3684px;stroke-width:0.529167;stroke-miterlimit:4;stroke-dasharray:none"
               x="135.00368"
               y="852.8183">Em</tspan></text>
          <text
             xml:space="preserve"
             style="font-size:7.3684px;line-height:1.25;font-family:sans-serif;stroke-width:0.529167;stroke-linecap:butt;stroke-linejoin:round;stroke-miterlimit:4;stroke-dasharray:none"
             x="159.87456"
             y="830.72559"
             id="text74019"><tspan
               sodipodi:role="line"
               id="tspan74017"
               style="font-size:7.3684px;stroke-width:0.529167;stroke-miterlimit:4;stroke-dasharray:none"
               x="159.87456"
               y="830.72559">Na</tspan></text>
          <text
             xml:space="preserve"
             style="font-size:7.3684px;line-height:1.25;font-family:sans-serif;stroke-width:0.529167;stroke-linecap:butt;stroke-linejoin:round;stroke-miterlimit:4;stroke-dasharray:none"
             x="159.14696"
             y="859.69751"
             id="text79171"><tspan
               sodipodi:role="line"
               id="tspan79169"
               style="font-size:7.3684px;stroke-width:0.529167;stroke-miterlimit:4;stroke-dasharray:none"
               x="159.14696"
               y="859.69751">E<tspan
   style="font-size:7.3684px;baseline-shift:sub;stroke-width:0.529167;stroke-miterlimit:4;stroke-dasharray:none"
   id="tspan79491">Na</tspan></tspan></text>
          <text
             xml:space="preserve"
             style="font-size:7.3684px;line-height:1.25;font-family:sans-serif;stroke-width:0.529167;stroke-linecap:butt;stroke-linejoin:round;stroke-miterlimit:4;stroke-dasharray:none"
             x="194.6012"
             y="836.48029"
             id="text82789"><tspan
               sodipodi:role="line"
               id="tspan82787"
               style="font-size:7.3684px;stroke-width:0.529167;stroke-miterlimit:4;stroke-dasharray:none"
               x="194.6012"
               y="836.48029">K_DR</tspan></text>
          <text
             xml:space="preserve"
             style="font-size:7.3684px;line-height:1.25;font-family:sans-serif;stroke-width:0.529167;stroke-linecap:butt;stroke-linejoin:round;stroke-miterlimit:4;stroke-dasharray:none"
             x="180.18135"
             y="860.09436"
             id="text84113"><tspan
               sodipodi:role="line"
               id="tspan84111"
               style="font-size:7.3684px;stroke-width:0.529167;stroke-miterlimit:4;stroke-dasharray:none"
               x="180.18135"
               y="860.09436">E<tspan
   style="font-size:7.3684px;baseline-shift:sub;stroke-width:0.529167;stroke-miterlimit:4;stroke-dasharray:none"
   id="tspan84775">K</tspan></tspan></text>
          <path
             style="fill:none;stroke:#000000;stroke-width:0.529167;stroke-linecap:butt;stroke-linejoin:miter;stroke-miterlimit:4;stroke-dasharray:none;stroke-opacity:1;marker-end:url(#Arrow1Lend-8)"
             d="m 145.52086,788.45835 5e-5,20.10833"
             id="path87664"
             sodipodi:nodetypes="cc" />
          <text
             xml:space="preserve"
             style="font-size:7.3684px;line-height:1.25;font-family:sans-serif;stroke-width:0.529167;stroke-linecap:butt;stroke-linejoin:round;stroke-miterlimit:4;stroke-dasharray:none"
             x="152.66461"
             y="801.68756"
             id="text91212"><tspan
               sodipodi:role="line"
               id="tspan91210"
               style="font-size:7.3684px;stroke-width:0.529167;stroke-miterlimit:4;stroke-dasharray:none"
               x="152.66461"
               y="801.68756">I<tspan
   style="font-size:7.3684px;baseline-shift:sub;stroke-width:0.529167;stroke-miterlimit:4;stroke-dasharray:none"
   id="tspan91346">injected</tspan></tspan></text>
        </g>
        <path
           style="fill:none;stroke:#000000;stroke-width:0.3482;stroke-linecap:butt;stroke-linejoin:miter;stroke-miterlimit:4;stroke-dasharray:none;stroke-opacity:1;marker-start:url(#marker44932-7-1);marker-end:url(#Arrow1Lend-63-2)"
           d="m 163.89437,114.35056 v 25.1244"
           id="path94449-9" />
        <text
           xml:space="preserve"
           style="font-size:3.04019px;line-height:1.25;font-family:sans-serif;stroke-width:0.253348;stroke-linecap:butt;stroke-linejoin:round;stroke-miterlimit:4;stroke-dasharray:none"
           x="165.04779"
           y="128.19516"
           id="text104404"><tspan
             sodipodi:role="line"
             id="tspan104402"
             style="stroke-width:0.253348;stroke-miterlimit:4;stroke-dasharray:none"
             x="165.04779"
             y="128.19516">15 μm</tspan></text>
        <text
           xml:space="preserve"
           style="font-size:3.52777px;line-height:1.25;font-family:sans-serif;stroke-width:0.253348;stroke-linecap:butt;stroke-linejoin:round;stroke-miterlimit:4;stroke-dasharray:none"
           x="170.47957"
           y="147.04945"
           id="text97648"><tspan
             sodipodi:role="line"
             id="tspan97646"
             style="font-size:3.52777px;stroke-width:0.253348;stroke-miterlimit:4;stroke-dasharray:none"
             x="170.47957"
             y="147.04945">15 μm</tspan></text>
        <path
           style="fill:none;stroke:#000000;stroke-width:0.247225;stroke-linecap:butt;stroke-linejoin:miter;stroke-miterlimit:4;stroke-dasharray:none;stroke-opacity:1;marker-start:url(#marker44932-3);marker-end:url(#Arrow1Lend-8)"
           d="m 162.13584,143.59272 h 26.5374"
           id="path94449" />
        <path
           style="fill:none;fill-opacity:0.298755;stroke:#000000;stroke-width:0.239386;stroke-dasharray:0.239386, 0.239386;stroke-dashoffset:0;stroke-opacity:1"
           d="m 161.71305,139.52555 v 9.71783"
           id="path3102" />
        <path
           style="fill:none;fill-opacity:0.298755;stroke:#000000;stroke-width:0.239386;stroke-dasharray:0.239386, 0.239386;stroke-dashoffset:0;stroke-opacity:1"
           d="m 189.07485,139.52555 v 9.71783"
           id="path3104" />
        <g
           id="path1116"
           transform="matrix(0.47877137,0,0,0.47877137,68.25714,44.795069)"
           style="fill:#8e8e8e;fill-opacity:1;stroke:#000000;stroke-opacity:0.253112">
          <g
             id="path1237"
             style="fill:#8e8e8e;fill-opacity:1;stroke:#000000;stroke-opacity:0.253112">
            <path
               style="color:#000000;fill:#8e8e8e;fill-opacity:1;stroke:#000000;stroke-width:0.567763;stroke-linejoin:round;stroke-opacity:0.253112;-inkscape-stroke:none"
               d="m 198.45171,143.98562 c -9.84496,-1.6e-4 -17.82595,12.40169 -17.826,27.70027 4e-5,15.29859 7.98103,27.70047 17.826,27.70031 0.0315,-0.002 0.063,-0.003 0.0945,-0.005 v 0.0366 h 53.63609 v -0.0566 c -9.64771,-0.41029 -17.33303,-12.67769 -17.33815,-27.67536 0.003,-14.43547 7.14043,-26.44683 16.40021,-27.60129 h -51.29732 c -0.49735,-0.0655 -0.99625,-0.0986 -1.49539,-0.099 z"
               id="path1003" />
            <path
               style="color:#000000;fill:#8e8e8e;fill-opacity:1;stroke:#000000;stroke-linejoin:round;stroke-opacity:0.253112;-inkscape-stroke:none"
               d="m 198.45117,143.70117 c -5.04168,-8e-5 -9.58232,3.17613 -12.84375,8.24414 -3.26143,5.06802 -5.2656,12.04159 -5.26562,19.74024 2e-5,7.69865 2.00419,14.6722 5.26562,19.74023 3.26143,5.06803 7.80207,8.24422 12.84375,8.24414 a 0.28390987,0.28390987 0 0 0 0.0176,0 c 0.012,-7.6e-4 0.0303,-10e-4 0.0449,-0.002 a 0.28390987,0.28390987 0 0 0 0.0332,0.0332 h 53.63477 a 0.28390987,0.28390987 0 0 0 0.28516,-0.2832 v -0.0566 a 0.28390987,0.28390987 0 0 0 -0.27149,-0.28321 c -4.70705,-0.20017 -8.96264,-3.29569 -12.05664,-8.23437 -3.094,-4.93868 -5.00722,-11.70784 -5.00976,-19.1582 0.001,-7.17096 1.77622,-13.73525 4.6875,-18.63477 2.91127,-4.89952 6.94405,-8.12021 11.46289,-8.68359 a 0.28390987,0.28390987 0 0 0 -0.0352,-0.56641 h -51.28906 c -0.49977,-0.0646 -1.00214,-0.0992 -1.50391,-0.0996 z m 0,0.56836 c 0.48674,3.9e-4 0.97373,0.0318 1.45899,0.0957 a 0.28390987,0.28390987 0 0 0 0.0371,0.004 h 49.20117 c -3.87226,1.18701 -7.29272,4.13681 -9.82032,8.39063 -2.97313,5.00363 -4.76606,11.66128 -4.76757,18.92578 0.003,7.54729 1.93384,14.41198 5.0957,19.45898 2.59178,4.13704 6.04773,6.95424 9.92187,7.99024 h -50.94726 a 0.28390987,0.28390987 0 0 0 -0.10352,-0.0371 c -0.0207,0.001 -0.0476,0.002 -0.0762,0.004 -4.80327,8e-5 -9.17492,-3.02491 -12.36523,-7.98242 -3.19031,-4.95751 -5.17576,-11.83367 -5.17578,-19.43359 2e-5,-7.59992 1.98547,-14.47609 5.17578,-19.4336 3.19031,-4.9575 7.56196,-7.9825 12.36523,-7.98242 z"
               id="path1005" />
          </g>
          <path
             style="color:#000000;fill:#8e8e8e;fill-opacity:1;stroke:#000000;stroke-linejoin:round;stroke-opacity:0.253112;-inkscape-stroke:none"
             d="m 198.45117,143.70117 c -5.04168,-8e-5 -9.58232,3.17613 -12.84375,8.24414 -3.26143,5.06802 -5.2656,12.04159 -5.26562,19.74024 2e-5,7.69865 2.00419,14.6722 5.26562,19.74023 3.26143,5.06803 7.80207,8.24422 12.84375,8.24414 0.006,1.8e-4 0.0117,1.8e-4 0.0176,0 0.012,-7.6e-4 0.0303,-10e-4 0.0449,-0.002 0.0101,0.012 0.0212,0.0231 0.0332,0.0332 h 53.63477 c 0.15701,6.9e-4 0.28477,-0.12619 0.28516,-0.2832 v -0.0566 c -2.3e-4,-0.1518 -0.11983,-0.27657 -0.27149,-0.28321 -4.70705,-0.20017 -8.96264,-3.29569 -12.05664,-8.23437 -3.094,-4.93868 -5.00722,-11.70784 -5.00976,-19.1582 0.001,-7.17096 1.77622,-13.73525 4.6875,-18.63477 2.91127,-4.89952 6.94405,-8.12021 11.46289,-8.68359 0.36444,-0.0349 0.33075,-0.5769 -0.0352,-0.56641 h -51.28906 c -0.49977,-0.0646 -1.00214,-0.0992 -1.50391,-0.0996 z m 0,0.56836 c 0.48674,3.9e-4 0.97373,0.0318 1.45899,0.0957 0.0123,0.002 0.0247,0.003 0.0371,0.004 h 49.20117 c -3.87226,1.18701 -7.29272,4.13681 -9.82032,8.39063 -2.97313,5.00363 -4.76606,11.66128 -4.76757,18.92578 0.003,7.54729 1.93384,14.41198 5.0957,19.45898 2.59178,4.13704 6.04773,6.95424 9.92187,7.99024 h -50.94726 c -0.0318,-0.019 -0.0669,-0.0316 -0.10352,-0.0371 -0.0207,0.001 -0.0476,0.002 -0.0762,0.004 -4.80327,8e-5 -9.17492,-3.02491 -12.36523,-7.98242 -3.19031,-4.95751 -5.17576,-11.83367 -5.17578,-19.43359 2e-5,-7.59992 1.98547,-14.47609 5.17578,-19.4336 3.19031,-4.9575 7.56196,-7.9825 12.36523,-7.98242 z"
             id="path1239"
             sodipodi:nodetypes="cscsccccccccscscccccccccscsccccscscc" />
        </g>
        <ellipse
           style="fill:#818181;fill-opacity:0.298755;stroke:#000000;stroke-width:0.581229;stroke-dasharray:none;stroke-opacity:1"
           id="path1295"
           cx="188.7816"
           cy="127.0647"
           rx="7.9251766"
           ry="13.388865" />
      </g>
    </g>
  </g>
</svg>
